<?xml version="1.0" encoding="UTF-8" standalone="no"?>
<!DOCTYPE svg PUBLIC "-//W3C//DTD SVG 1.1//EN" "http://www.w3.org/Graphics/SVG/1.1/DTD/svg11.dtd">
<svg version="1.1" xmlns="http://www.w3.org/2000/svg" xmlns:xlink="http://www.w3.org/1999/xlink" preserveAspectRatio="xMidYMid meet" viewBox="0 0 300 150" width="300" height="150"><defs><path d="M222.97 121.21L222.84 121.88L222.69 123.16L222.64 124.46L222.69 125.76L222.84 127.04L222.96 127.65L155.97 127.65L156.11 126.94L156.25 125.67L156.3 124.37L156.25 123.06L156.11 121.79L155.93 120.86L221.16 120.86L221.16 121.21L222.97 121.21ZM116.93 123.06L116.88 124.37L116.93 125.67L117.08 126.94L117.21 127.65L83.18 127.65L83.18 120.86L117.25 120.86L117.08 121.79L116.93 123.06ZM300 127.65L261.75 127.65L261.87 127.04L262.02 125.76L262.06 124.46L262.02 123.16L261.87 121.88L261.74 121.21L291.72 121.21L291.72 61.05L292.06 60.67L223.21 8.36L223.21 7.37L221.9 7.37L221.57 7.12L221.35 7.37L83.18 7.37L83.18 0L227.57 0L300 55.03L300 127.65Z" id="bPP3UPXmE"></path><path d="M0 21.15L93.04 21.15L93.04 30.27L0 30.27L0 21.15Z" id="a6LtCWRUlY"></path><path d="M18.92 57.7L93.04 57.7L93.04 66.23L18.92 66.23L18.92 57.7Z" id="d1b9qKOnvT"></path><path d="M40.37 93.66L93.04 93.66L93.04 102.78L40.37 102.78L40.37 93.66Z" id="ap9qeBk7c"></path><path d="M137.91 99.48L139.25 99.64L140.57 99.86L141.87 100.13L143.15 100.47L144.39 100.86L145.61 101.3L146.8 101.8L147.96 102.35L149.09 102.95L150.18 103.6L151.23 104.29L152.24 105.03L153.22 105.81L154.15 106.63L155.04 107.5L155.89 108.4L156.68 109.34L157.43 110.31L158.13 111.32L158.78 112.36L159.37 113.43L159.91 114.53L160.39 115.66L160.82 116.82L161.18 117.99L161.48 119.2L161.71 120.42L161.88 121.66L161.99 122.92L162.02 124.2L161.99 125.48L161.88 126.74L161.71 127.99L161.48 129.21L161.18 130.41L160.82 131.59L160.39 132.74L159.91 133.87L159.37 134.97L158.78 136.04L158.13 137.09L157.43 138.09L156.68 139.07L155.89 140.01L155.04 140.91L154.15 141.77L153.22 142.6L152.24 143.38L151.23 144.12L150.18 144.81L149.09 145.46L147.96 146.05L146.8 146.6L145.61 147.1L144.39 147.55L143.15 147.94L141.87 148.27L140.57 148.55L139.25 148.77L137.91 148.93L136.54 149.02L135.16 149.06L133.78 149.02L132.42 148.93L131.07 148.77L129.75 148.55L128.45 148.27L127.18 147.94L125.93 147.55L124.71 147.1L123.52 146.6L122.36 146.05L121.24 145.46L120.15 144.81L119.09 144.12L118.08 143.38L117.1 142.6L116.17 141.77L115.28 140.91L114.43 140.01L113.64 139.07L112.89 138.09L112.19 137.09L111.54 136.04L110.95 134.97L110.41 133.87L109.93 132.74L109.51 131.59L109.14 130.41L108.84 129.21L108.61 127.99L108.44 126.74L108.33 125.48L108.3 124.2L108.33 122.92L108.44 121.66L108.61 120.42L108.84 119.2L109.14 117.99L109.51 116.82L109.93 115.66L110.41 114.53L110.95 113.43L111.54 112.36L112.19 111.32L112.89 110.31L113.64 109.34L114.43 108.4L115.28 107.5L116.17 106.63L117.1 105.81L118.08 105.03L119.09 104.29L120.15 103.6L121.24 102.95L122.36 102.35L123.52 101.8L124.71 101.3L125.93 100.86L127.18 100.47L128.45 100.13L129.75 99.86L131.07 99.64L132.42 99.48L133.78 99.38L135.16 99.35L136.54 99.38L137.91 99.48ZM133.41 105.95L132.06 106.17L130.74 106.47L129.46 106.86L128.22 107.32L127.02 107.86L125.87 108.47L124.77 109.14L123.73 109.88L122.73 110.69L121.8 111.55L120.94 112.46L120.14 113.43L119.41 114.45L118.75 115.52L118.17 116.62L117.67 117.77L117.25 118.96L116.92 120.17L116.68 121.42L116.54 122.7L116.49 124L116.54 125.3L116.68 126.58L116.92 127.83L117.25 129.05L117.67 130.23L118.17 131.38L118.75 132.49L119.41 133.55L120.14 134.57L120.94 135.54L121.8 136.46L122.73 137.32L123.73 138.12L124.77 138.86L125.87 139.54L127.02 140.14L128.22 140.68L129.46 141.14L130.74 141.53L132.06 141.83L133.41 142.06L134.79 142.19L136.2 142.24L137.6 142.19L138.98 142.06L140.33 141.83L141.65 141.53L142.93 141.14L144.17 140.68L145.37 140.14L146.52 139.54L147.62 138.86L148.67 138.12L149.66 137.32L150.59 136.46L151.46 135.54L152.26 134.57L152.99 133.55L153.64 132.49L154.22 131.38L154.73 130.23L155.14 129.05L155.47 127.83L155.71 126.58L155.86 125.3L155.91 124L155.86 122.7L155.71 121.42L155.47 120.17L155.14 118.96L154.73 117.77L154.22 116.62L153.64 115.52L152.99 114.45L152.26 113.43L151.46 112.46L150.59 111.55L149.66 110.69L148.67 109.88L147.62 109.14L146.52 108.47L145.37 107.86L144.17 107.32L142.93 106.86L141.65 106.47L140.33 106.17L138.98 105.95L137.6 105.81L136.2 105.77L134.79 105.81L133.41 105.95Z" id="az6TAUEb8"></path><path d="M244.06 100.42L245.41 100.58L246.73 100.8L248.03 101.08L249.3 101.41L250.55 101.8L251.77 102.25L252.96 102.75L254.12 103.3L255.24 103.9L256.33 104.54L257.39 105.24L258.4 105.97L259.38 106.75L260.31 107.58L261.2 108.44L262.04 109.34L262.84 110.28L263.59 111.26L264.29 112.26L264.94 113.31L265.53 114.38L266.07 115.48L266.55 116.61L266.97 117.76L267.33 118.94L267.63 120.14L267.87 121.36L268.04 122.61L268.15 123.87L268.18 125.15L268.15 126.43L268.04 127.69L267.87 128.93L267.63 130.15L267.33 131.36L266.97 132.53L266.55 133.69L266.07 134.82L265.53 135.92L264.94 136.99L264.29 138.03L263.59 139.04L262.84 140.01L262.04 140.95L261.2 141.85L260.31 142.72L259.38 143.54L258.4 144.32L257.39 145.06L256.33 145.75L255.24 146.4L254.12 147L252.96 147.55L251.77 148.05L250.55 148.49L249.3 148.88L248.03 149.22L246.73 149.49L245.41 149.71L244.06 149.87L242.7 149.97L241.32 150L239.94 149.97L238.57 149.87L237.23 149.71L235.91 149.49L234.61 149.22L233.33 148.88L232.09 148.49L230.87 148.05L229.68 147.55L228.52 147L227.39 146.4L226.3 145.75L225.25 145.06L224.23 144.32L223.26 143.54L222.33 142.72L221.44 141.85L220.59 140.95L219.79 140.01L219.05 139.04L218.35 138.03L217.7 136.99L217.11 135.92L216.57 134.82L216.09 133.69L215.66 132.53L215.3 131.36L215 130.15L214.76 128.93L214.59 127.69L214.49 126.43L214.45 125.15L214.49 123.87L214.59 122.61L214.76 121.36L215 120.14L215.3 118.94L215.66 117.76L216.09 116.61L216.57 115.48L217.11 114.38L217.7 113.31L218.35 112.26L219.05 111.26L219.79 110.28L220.59 109.34L221.44 108.44L222.33 107.58L223.26 106.75L224.23 105.97L225.25 105.24L226.3 104.54L227.39 103.9L228.52 103.3L229.68 102.75L230.87 102.25L232.09 101.8L233.33 101.41L234.61 101.08L235.91 100.8L237.23 100.58L238.57 100.42L239.94 100.33L241.32 100.3L242.7 100.33L244.06 100.42ZM239.96 107.26L238.61 107.48L237.29 107.78L236.01 108.17L234.77 108.63L233.58 109.17L232.42 109.78L231.32 110.45L230.28 111.19L229.29 112L228.36 112.86L227.49 113.77L226.69 114.74L225.96 115.76L225.3 116.82L224.72 117.93L224.22 119.08L223.8 120.26L223.47 121.48L223.23 122.73L223.09 124.01L223.04 125.31L223.09 126.61L223.23 127.89L223.47 129.14L223.8 130.36L224.22 131.54L224.72 132.69L225.3 133.8L225.96 134.86L226.69 135.88L227.49 136.85L228.36 137.77L229.29 138.63L230.28 139.43L231.32 140.17L232.42 140.84L233.58 141.45L234.77 141.99L236.01 142.45L237.29 142.84L238.61 143.14L239.96 143.37L241.34 143.5L242.75 143.55L244.16 143.5L245.54 143.37L246.89 143.14L248.2 142.84L249.48 142.45L250.72 141.99L251.92 141.45L253.07 140.84L254.17 140.17L255.22 139.43L256.21 138.63L257.14 137.77L258.01 136.85L258.81 135.88L259.54 134.86L260.2 133.8L260.78 132.69L261.28 131.54L261.69 130.36L262.02 129.14L262.26 127.89L262.41 126.61L262.46 125.31L262.41 124.01L262.26 122.73L262.02 121.48L261.69 120.26L261.28 119.08L260.78 117.93L260.2 116.82L259.54 115.76L258.81 114.74L258.01 113.77L257.14 112.86L256.21 112L255.22 111.19L254.17 110.45L253.07 109.78L251.92 109.17L250.72 108.63L249.48 108.17L248.2 107.78L246.89 107.48L245.54 107.26L244.16 107.12L242.75 107.08L241.34 107.12L239.96 107.26Z" id="g1loMDNDfF"></path></defs><g><g><g><use xlink:href="#bPP3UPXmE" opacity="1" fill="#000000" fill-opacity="1"></use></g><g><use xlink:href="#a6LtCWRUlY" opacity="1" fill="#000000" fill-opacity="1"></use></g><g><use xlink:href="#d1b9qKOnvT" opacity="1" fill="#000000" fill-opacity="1"></use></g><g><use xlink:href="#ap9qeBk7c" opacity="1" fill="#000000" fill-opacity="1"></use></g><g><use xlink:href="#az6TAUEb8" opacity="1" fill="#000000" fill-opacity="1"></use></g><g><use xlink:href="#g1loMDNDfF" opacity="1" fill="#000000" fill-opacity="1"></use></g></g></g></svg>