<?xml version="1.0" encoding="UTF-8" standalone="no"?>
<!DOCTYPE svg PUBLIC "-//W3C//DTD SVG 1.1//EN" "http://www.w3.org/Graphics/SVG/1.1/DTD/svg11.dtd">
<svg version="1.1" xmlns="http://www.w3.org/2000/svg" xmlns:xlink="http://www.w3.org/1999/xlink" preserveAspectRatio="xMidYMid meet" viewBox="0 0 500 750" width="500" height="750"><defs><path d="M280.57 1.88L290.53 3.33L300.36 5.16L310.05 7.38L319.59 9.98L328.98 12.95L338.21 16.28L347.27 19.97L356.15 23.99L364.85 28.36L373.35 33.05L381.65 38.06L389.74 43.39L397.61 49.02L405.25 54.94L412.66 61.15L419.83 67.64L426.74 74.4L433.4 81.43L439.79 88.71L445.91 96.23L451.74 104L457.28 111.99L462.52 120.2L467.46 128.63L472.08 137.27L476.38 146.1L480.34 155.12L483.97 164.32L487.25 173.69L490.17 183.23L492.73 192.92L494.92 202.77L496.73 212.75L498.15 222.86L499.17 233.1L499.79 243.45L500 253.91L499.79 264.37L499.17 274.72L498.15 284.96L496.73 295.07L494.92 305.06L492.73 314.9L490.17 324.59L487.25 334.13L483.97 343.51L480.34 352.71L476.38 361.73L472.08 370.56L467.46 379.19L462.52 387.62L457.28 395.84L451.74 403.83L445.91 411.59L439.79 419.12L438.28 420.84L290.6 680.62L290.68 680.76L251.68 749.37L251.45 749.5L251.28 749.79L251.12 749.69L250.6 750L209.78 678.19L209.59 678.3L66.03 425.74L60.21 419.12L54.09 411.59L48.26 403.83L42.72 395.84L37.48 387.62L32.54 379.19L27.92 370.56L23.62 361.73L19.66 352.71L16.03 343.51L12.75 334.13L9.83 324.59L7.27 314.9L5.08 305.06L3.27 295.07L1.85 284.96L0.83 274.72L0.21 264.37L0 253.91L0.21 243.45L0.83 233.1L1.85 222.86L3.27 212.75L5.08 202.77L7.27 192.92L9.83 183.23L12.75 173.69L16.03 164.32L19.66 155.12L23.62 146.1L27.92 137.27L32.54 128.63L37.48 120.2L42.72 111.99L48.26 104L54.09 96.23L60.21 88.71L66.6 81.43L73.26 74.4L80.17 67.64L87.34 61.15L94.75 54.94L102.39 49.02L110.26 43.39L118.35 38.06L126.65 33.05L135.15 28.36L143.85 23.99L152.73 19.97L161.79 16.28L171.02 12.95L180.41 9.98L189.95 7.38L199.64 5.16L209.47 3.33L219.43 1.88L229.51 0.84L239.7 0.21L250 0L260.3 0.21L270.49 0.84L280.57 1.88ZM290.53 504.5L280.57 505.94L270.49 506.98L260.3 507.61L250 507.82L239.7 507.61L229.51 506.98L219.43 505.94L209.47 504.5L199.64 502.66L189.95 500.44L187.86 499.87L250.76 610.53L313.94 499.38L310.05 500.44L300.36 502.66L290.53 504.5ZM225.03 68.63L217.73 69.68L210.53 71.03L203.42 72.66L196.43 74.56L189.55 76.74L182.78 79.18L176.14 81.88L169.63 84.83L163.26 88.03L157.03 91.47L150.95 95.14L145.02 99.04L139.25 103.17L133.65 107.51L128.22 112.06L122.97 116.82L117.9 121.78L113.02 126.92L108.34 132.26L103.86 137.77L99.58 143.46L95.52 149.32L91.68 155.34L88.06 161.52L84.68 167.85L81.53 174.32L78.62 180.93L75.96 187.67L73.56 194.54L71.42 201.53L69.54 208.64L67.94 215.85L66.61 223.16L65.57 230.58L64.82 238.08L64.37 245.67L64.21 253.33L64.37 261L64.82 268.58L65.57 276.09L66.61 283.5L67.94 290.82L69.54 298.03L71.42 305.13L73.56 312.12L75.96 318.99L78.62 325.74L81.53 332.35L84.68 338.82L88.06 345.15L91.68 351.32L95.52 357.34L99.58 363.2L103.86 368.89L108.34 374.41L113.02 379.74L117.9 384.89L122.97 389.84L128.22 394.6L133.65 399.15L139.25 403.49L145.02 407.62L150.95 411.52L157.03 415.2L163.26 418.63L169.63 421.83L176.14 424.79L182.78 427.48L189.55 429.92L196.43 432.1L203.42 434.01L210.53 435.63L217.73 436.98L225.03 438.04L232.41 438.8L239.88 439.26L247.43 439.42L254.98 439.26L262.45 438.8L269.84 438.04L277.13 436.98L284.34 435.63L291.44 434.01L298.43 432.1L305.32 429.92L312.08 427.48L318.72 424.79L325.23 421.83L331.6 418.63L337.83 415.2L343.91 411.52L349.84 407.62L355.61 403.49L361.21 399.15L366.64 394.6L371.89 389.84L376.96 384.89L381.84 379.74L386.52 374.41L391.01 368.89L395.28 363.2L399.34 357.34L403.18 351.32L406.8 345.15L410.19 338.82L413.34 332.35L416.24 325.74L418.9 318.99L421.3 312.12L423.45 305.13L425.32 298.03L426.93 290.82L428.25 283.5L429.29 276.09L430.04 268.58L430.5 261L430.65 253.33L430.5 245.67L430.04 238.08L429.29 230.58L428.25 223.16L426.93 215.85L425.32 208.64L423.45 201.53L421.3 194.54L418.9 187.67L416.24 180.93L413.34 174.32L410.19 167.85L406.8 161.52L403.18 155.34L399.34 149.32L395.28 143.46L391.01 137.77L386.52 132.26L381.84 126.92L376.96 121.78L371.89 116.82L366.64 112.06L361.21 107.51L355.61 103.17L349.84 99.04L343.91 95.14L337.83 91.47L331.6 88.03L325.23 84.83L318.72 81.88L312.08 79.18L305.32 76.74L298.43 74.56L291.44 72.66L284.34 71.03L277.13 69.68L269.84 68.63L262.45 67.86L254.98 67.4L247.43 67.25L239.88 67.4L232.41 67.86L225.03 68.63Z" id="eeFAEScoE"></path></defs><g><g><g><use xlink:href="#eeFAEScoE" opacity="1" fill="#000000" fill-opacity="1"></use><g><use xlink:href="#eeFAEScoE" opacity="1" fill-opacity="0" stroke="#000000" stroke-width="1" stroke-opacity="0"></use></g></g></g></g></svg>