<?xml version="1.0" encoding="UTF-8" standalone="no"?>
<!DOCTYPE svg PUBLIC "-//W3C//DTD SVG 1.1//EN" "http://www.w3.org/Graphics/SVG/1.1/DTD/svg11.dtd">
<svg version="1.1" xmlns="http://www.w3.org/2000/svg" xmlns:xlink="http://www.w3.org/1999/xlink" preserveAspectRatio="xMidYMid meet" viewBox="0 0 200 150" width="200" height="150"><defs><path d="M0.28 54.8L33.55 0.54L52.96 11.09L19.68 65.34L0.28 54.8Z" id="g7AKYIRuRp"></path><path d="M91.46 140.69L0.76 55.32L16.61 40.4L107.3 125.77L91.46 140.69Z" id="aO8i81b3i"></path><path d="M33.83 0L80.67 0L80.67 21.09L33.83 21.09L33.83 0Z" id="aDKX1QPi"></path><path d="M80.37 0.6L116.27 34.4L100.42 49.31L64.52 15.52L80.37 0.6Z" id="bzTyG29yL"></path><path d="M200.09 56.67L165.64 0.52L146.24 11.07L180.68 67.22L200.09 56.67Z" id="c2uV19DKqY"></path><path d="M109.1 142.88L200.28 57.06L184.43 42.14L93.26 127.97L109.1 142.88Z" id="b2eJE683q5"></path><path d="M165.39 0.19L119.89 0.19L119.89 21.28L165.39 21.28L165.39 0.19Z" id="b1KpRyXTCw"></path><path d="M120.19 0.8L86.37 32.64L102.21 47.55L136.03 15.71L120.19 0.8Z" id="fuqSbyx5C"></path><path d="M101.34 150L116.45 135.78L99.34 119.68L84.24 133.9L101.34 150Z" id="a2NuquimH"></path></defs><g><g><g><use xlink:href="#g7AKYIRuRp" opacity="1" fill="#000000" fill-opacity="1"></use></g><g><use xlink:href="#aO8i81b3i" opacity="1" fill="#000000" fill-opacity="1"></use></g><g><use xlink:href="#aDKX1QPi" opacity="1" fill="#000000" fill-opacity="1"></use></g><g><use xlink:href="#bzTyG29yL" opacity="1" fill="#000000" fill-opacity="1"></use></g><g><use xlink:href="#c2uV19DKqY" opacity="1" fill="#000000" fill-opacity="1"></use></g><g><use xlink:href="#b2eJE683q5" opacity="1" fill="#000000" fill-opacity="1"></use></g><g><use xlink:href="#b1KpRyXTCw" opacity="1" fill="#000000" fill-opacity="1"></use></g><g><use xlink:href="#fuqSbyx5C" opacity="1" fill="#000000" fill-opacity="1"></use></g><g><use xlink:href="#a2NuquimH" opacity="1" fill="#000000" fill-opacity="1"></use></g></g></g></svg>