<?xml version="1.0" encoding="UTF-8" standalone="no"?>
<!DOCTYPE svg PUBLIC "-//W3C//DTD SVG 1.1//EN" "http://www.w3.org/Graphics/SVG/1.1/DTD/svg11.dtd">
<svg version="1.1" xmlns="http://www.w3.org/2000/svg" xmlns:xlink="http://www.w3.org/1999/xlink" preserveAspectRatio="xMidYMid meet" viewBox="0 0 600 400" width="600" height="400"><defs><path d="M237.51 261.18L168.66 147.58L254.5 95.55L354.9 261.18L237.51 261.18Z" id="e1D0jwbZNd"></path><path d="M77.59 261.61L64.14 239.42L149.95 187.4L194.93 261.61L77.59 261.61Z" id="a50NiWqy9H"></path><path d="M199.98 395.84L199.98 387.78L199 388.47L197.29 389.57L195.55 390.61L193.76 391.58L191.93 392.49L190.06 393.32L188.16 394.08L186.21 394.77L184.24 395.39L182.23 395.93L180.19 396.39L178.12 396.77L176.03 397.07L173.91 397.28L171.76 397.41L169.6 397.46L167.43 397.41L165.29 397.28L163.16 397.07L161.07 396.77L159 396.39L156.96 395.93L154.96 395.39L152.98 394.77L151.04 394.08L149.13 393.32L147.26 392.49L145.43 391.58L143.65 390.61L141.9 389.57L140.2 388.47L138.54 387.3L136.93 386.08L135.37 384.79L133.87 383.44L132.41 382.04L131.01 380.59L129.67 379.08L128.38 377.52L127.15 375.91L125.99 374.26L124.88 372.56L123.85 370.81L122.87 369.02L121.97 367.19L121.14 365.32L120.37 363.42L119.68 361.48L119.07 359.5L118.53 357.49L118.07 355.45L117.69 353.39L117.39 351.29L117.17 349.17L117.04 347.03L117 344.86L117.04 342.69L117.17 340.55L117.39 338.43L117.69 336.33L118.07 334.26L118.53 332.23L119.07 330.22L119.68 328.24L120.37 326.3L121.14 324.39L121.97 322.52L122.87 320.7L123.85 318.91L124.88 317.16L125.99 315.46L127.15 313.8L128.38 312.2L129.67 310.64L131.01 309.13L132.41 307.67L133.87 306.27L135.37 304.93L136.93 303.64L138.54 302.41L140.2 301.25L141.9 300.15L143.65 299.11L145.43 298.14L147.26 297.23L149.13 296.4L151.04 295.63L152.98 294.94L154.96 294.33L156.96 293.79L159 293.33L161.07 292.95L163.16 292.65L165.29 292.44L167.43 292.3L169.6 292.26L171.76 292.3L173.91 292.44L176.03 292.65L178.12 292.95L180.19 293.33L182.23 293.79L184.24 294.33L186.21 294.94L188.16 295.63L190.06 296.4L191.93 297.23L193.76 298.14L195.55 299.11L197.29 300.15L199 301.25L199.98 301.94L199.98 260.32L224.5 260.32L224.5 395.84L199.98 395.84ZM167.59 315.61L166.28 315.75L164.99 315.95L163.72 316.21L162.47 316.51L161.25 316.87L160.04 317.28L158.86 317.73L157.7 318.24L156.57 318.79L155.46 319.39L154.39 320.03L153.34 320.71L152.32 321.44L151.34 322.2L150.39 323.01L149.47 323.85L148.59 324.73L147.75 325.65L146.94 326.6L146.17 327.58L145.45 328.6L144.76 329.65L144.12 330.72L143.53 331.83L142.98 332.96L142.47 334.12L142.01 335.3L141.61 336.51L141.25 337.74L140.94 338.99L140.69 340.25L140.49 341.54L140.35 342.85L140.26 344.17L140.23 345.5L140.26 346.84L140.35 348.16L140.49 349.47L140.69 350.75L140.94 352.02L141.25 353.27L141.61 354.5L142.01 355.71L142.47 356.89L142.98 358.05L143.53 359.18L144.12 360.28L144.76 361.36L145.45 362.41L146.17 363.42L146.94 364.41L147.75 365.36L148.59 366.28L149.47 367.16L150.39 368L151.34 368.81L152.32 369.57L153.34 370.3L154.39 370.98L155.46 371.62L156.57 372.22L157.7 372.77L158.86 373.28L160.04 373.73L161.25 374.14L162.47 374.5L163.72 374.8L164.99 375.06L166.28 375.25L167.59 375.4L168.91 375.48L170.24 375.51L171.58 375.48L172.9 375.4L174.2 375.25L175.49 375.06L176.76 374.8L178.01 374.5L179.24 374.14L180.44 373.73L181.63 373.28L182.78 372.77L183.92 372.22L185.02 371.62L186.1 370.98L187.15 370.3L188.16 369.57L189.15 368.81L190.1 368L191.01 367.16L191.89 366.28L192.74 365.36L193.54 364.41L194.31 363.42L195.04 362.41L195.72 361.36L196.36 360.28L196.96 359.18L197.51 358.05L198.01 356.89L198.47 355.71L198.88 354.5L199.24 353.27L199.54 352.02L199.79 350.75L199.98 349.55L199.98 341.46L199.79 340.25L199.54 338.99L199.24 337.74L198.88 336.51L198.47 335.3L198.01 334.12L197.51 332.96L196.96 331.83L196.36 330.72L195.72 329.65L195.04 328.6L194.31 327.58L193.54 326.6L192.74 325.65L191.89 324.73L191.01 323.85L190.1 323.01L189.15 322.2L188.16 321.44L187.15 320.71L186.1 320.03L185.02 319.39L183.92 318.79L182.78 318.24L181.63 317.73L180.44 317.28L179.24 316.87L178.01 316.51L176.76 316.21L175.49 315.95L174.2 315.75L172.9 315.61L171.58 315.52L170.24 315.49L168.91 315.52L167.59 315.61Z" id="emzguNSo1"></path><path d="M446.25 293.55L448.37 293.77L450.47 294.07L452.54 294.45L454.58 294.91L456.58 295.45L458.56 296.06L460.5 296.75L462.41 297.52L464.28 298.35L466.11 299.25L467.89 300.23L469.64 301.27L471.34 302.37L472.05 302.87L472.05 294.99L497.87 294.99L497.87 396.96L472.05 396.96L472.05 389.09L471.34 389.59L469.64 390.69L467.89 391.73L466.11 392.7L464.28 393.6L462.41 394.44L460.5 395.2L458.56 395.89L456.58 396.51L454.58 397.05L452.54 397.51L450.47 397.89L448.37 398.19L446.25 398.4L444.11 398.53L441.94 398.58L439.78 398.53L437.63 398.4L435.51 398.19L433.42 397.89L431.35 397.51L429.31 397.05L427.3 396.51L425.33 395.89L423.38 395.2L421.48 394.44L419.61 393.6L417.78 392.7L415.99 391.73L414.25 390.69L412.54 389.59L410.89 388.42L409.28 387.19L407.72 385.91L406.21 384.56L404.76 383.16L403.36 381.71L402.01 380.2L400.73 378.64L399.5 377.03L398.33 375.38L397.23 373.68L396.19 371.93L395.22 370.14L394.32 368.31L393.48 366.44L392.72 364.54L392.03 362.6L391.41 360.62L390.88 358.61L390.41 356.57L390.03 354.5L389.74 352.41L389.52 350.29L389.39 348.14L389.35 345.98L389.39 343.81L389.52 341.67L389.74 339.55L390.03 337.45L390.41 335.38L390.88 333.34L391.41 331.34L392.03 329.36L392.72 327.42L393.48 325.51L394.32 323.64L395.22 321.81L396.19 320.03L397.23 318.28L398.33 316.58L399.5 314.92L400.73 313.31L402.01 311.76L403.36 310.25L404.76 308.79L406.21 307.39L407.72 306.05L409.28 304.76L410.89 303.53L412.54 302.37L414.25 301.27L415.99 300.23L417.78 299.25L419.61 298.35L421.48 297.52L423.38 296.75L425.33 296.06L427.3 295.45L429.31 294.91L431.35 294.45L433.42 294.07L435.51 293.77L437.63 293.55L439.78 293.42L441.94 293.38L444.11 293.42L446.25 293.55ZM439.93 316.73L438.63 316.87L437.34 317.07L436.07 317.32L434.82 317.63L433.59 317.99L432.39 318.39L431.2 318.85L430.05 319.36L428.91 319.91L427.81 320.5L426.73 321.15L425.69 321.83L424.67 322.56L423.69 323.32L422.73 324.13L421.82 324.97L420.94 325.85L420.09 326.77L419.29 327.72L418.52 328.7L417.79 329.72L417.11 330.77L416.47 331.84L415.87 332.95L415.32 334.08L414.82 335.24L414.36 336.42L413.95 337.63L413.6 338.86L413.29 340.1L413.04 341.37L412.84 342.66L412.7 343.97L412.61 345.29L412.58 346.62L412.61 347.96L412.7 349.28L412.84 350.58L413.04 351.87L413.29 353.14L413.6 354.39L413.95 355.62L414.36 356.83L414.82 358.01L415.32 359.17L415.87 360.3L416.47 361.4L417.11 362.48L417.79 363.53L418.52 364.54L419.29 365.53L420.09 366.48L420.94 367.39L421.82 368.27L422.73 369.12L423.69 369.92L424.67 370.69L425.69 371.42L426.73 372.1L427.81 372.74L428.91 373.34L430.05 373.89L431.2 374.39L432.39 374.85L433.59 375.26L434.82 375.62L436.07 375.92L437.34 376.17L438.63 376.37L439.93 376.52L441.25 376.6L442.59 376.63L443.92 376.6L445.25 376.52L446.55 376.37L447.84 376.17L449.11 375.92L450.36 375.62L451.58 375.26L452.79 374.85L453.97 374.39L455.13 373.89L456.26 373.34L457.37 372.74L458.44 372.1L459.49 371.42L460.51 370.69L461.49 369.92L462.44 369.12L463.36 368.27L464.24 367.39L465.08 366.48L465.89 365.53L466.66 364.54L467.38 363.53L468.07 362.48L468.71 361.4L469.3 360.3L469.86 359.17L470.36 358.01L470.82 356.83L471.22 355.62L471.58 354.39L471.89 353.14L472.05 352.31L472.05 340.93L471.89 340.1L471.58 338.86L471.22 337.63L470.82 336.42L470.36 335.24L469.86 334.08L469.3 332.95L468.71 331.84L468.07 330.77L467.38 329.72L466.66 328.7L465.89 327.72L465.08 326.77L464.24 325.85L463.36 324.97L462.44 324.13L461.49 323.32L460.51 322.56L459.49 321.83L458.44 321.15L457.37 320.5L456.26 319.91L455.13 319.36L453.97 318.85L452.79 318.39L451.58 317.99L450.36 317.63L449.11 317.32L447.84 317.07L446.55 316.87L445.25 316.73L443.92 316.64L442.59 316.61L441.25 316.64L439.93 316.73Z" id="anHXmJBFP"></path><path d="M57.74 293.73L59.86 293.94L61.96 294.24L64.02 294.62L66.06 295.08L68.07 295.62L70.05 296.24L71.99 296.92L73.9 297.69L75.76 298.52L77.59 299.43L79.38 300.4L81.13 301.44L82.83 302.54L83.54 303.04L83.54 295.17L109.35 295.17L109.35 397.13L83.54 397.13L83.54 389.26L82.83 389.76L81.13 390.86L79.38 391.9L77.59 392.87L75.76 393.78L73.9 394.61L71.99 395.37L70.05 396.06L68.07 396.68L66.06 397.22L64.02 397.68L61.96 398.06L59.86 398.36L57.74 398.57L55.6 398.7L53.43 398.75L51.26 398.7L49.12 398.57L47 398.36L44.9 398.06L42.84 397.68L40.8 397.22L38.79 396.68L36.81 396.06L34.87 395.37L32.96 394.61L31.1 393.78L29.27 392.87L27.48 391.9L25.73 390.86L24.03 389.76L22.37 388.59L20.77 387.37L19.21 386.08L17.7 384.73L16.25 383.33L14.84 381.88L13.5 380.37L12.21 378.81L10.99 377.2L9.82 375.55L8.72 373.85L7.68 372.1L6.71 370.31L5.8 368.48L4.97 366.61L4.21 364.71L3.52 362.77L2.9 360.79L2.36 358.78L1.9 356.74L1.52 354.68L1.22 352.58L1.01 350.46L0.88 348.32L0.83 346.15L0.88 343.98L1.01 341.84L1.22 339.72L1.52 337.62L1.9 335.55L2.36 333.52L2.9 331.51L3.52 329.53L4.21 327.59L4.97 325.68L5.8 323.82L6.71 321.99L7.68 320.2L8.72 318.45L9.82 316.75L10.99 315.09L12.21 313.49L13.5 311.93L14.84 310.42L16.25 308.96L17.7 307.56L19.21 306.22L20.77 304.93L22.37 303.71L24.03 302.54L25.73 301.44L27.48 300.4L29.27 299.43L31.1 298.52L32.96 297.69L34.87 296.92L36.81 296.24L38.79 295.62L40.8 295.08L42.84 294.62L44.9 294.24L47 293.94L49.12 293.73L51.26 293.6L53.43 293.55L55.6 293.6L57.74 293.73ZM51.42 316.9L50.11 317.04L48.83 317.24L47.56 317.5L46.31 317.8L45.08 318.16L43.87 318.57L42.69 319.02L41.53 319.53L40.4 320.08L39.3 320.68L38.22 321.32L37.17 322L36.16 322.73L35.17 323.49L34.22 324.3L33.3 325.14L32.42 326.02L31.58 326.94L30.77 327.89L30.01 328.88L29.28 329.89L28.6 330.94L27.96 332.02L27.36 333.12L26.81 334.25L26.3 335.41L25.85 336.59L25.44 337.8L25.08 339.03L24.78 340.28L24.52 341.55L24.33 342.83L24.18 344.14L24.09 345.46L24.07 346.79L24.09 348.13L24.18 349.45L24.33 350.76L24.52 352.04L24.78 353.31L25.08 354.56L25.44 355.79L25.85 357L26.3 358.18L26.81 359.34L27.36 360.47L27.96 361.57L28.6 362.65L29.28 363.7L30.01 364.71L30.77 365.7L31.58 366.65L32.42 367.57L33.3 368.45L34.22 369.29L35.17 370.1L36.16 370.86L37.17 371.59L38.22 372.27L39.3 372.91L40.4 373.51L41.53 374.06L42.69 374.57L43.87 375.02L45.08 375.43L46.31 375.79L47.56 376.09L48.83 376.35L50.11 376.54L51.42 376.69L52.74 376.78L54.08 376.8L55.41 376.78L56.73 376.69L58.04 376.54L59.32 376.35L60.59 376.09L61.84 375.79L63.07 375.43L64.28 375.02L65.46 374.57L66.62 374.06L67.75 373.51L68.85 372.91L69.93 372.27L70.98 371.59L71.99 370.86L72.98 370.1L73.93 369.29L74.85 368.45L75.73 367.57L76.57 366.65L77.38 365.7L78.14 364.71L78.87 363.7L79.55 362.65L80.19 361.57L80.79 360.47L81.34 359.34L81.85 358.18L82.3 357L82.71 355.79L83.07 354.56L83.37 353.31L83.54 352.49L83.54 341.11L83.37 340.28L83.07 339.03L82.71 337.8L82.3 336.59L81.85 335.41L81.34 334.25L80.79 333.12L80.19 332.02L79.55 330.94L78.87 329.89L78.14 328.88L77.38 327.89L76.57 326.94L75.73 326.02L74.85 325.14L73.93 324.3L72.98 323.49L71.99 322.73L70.98 322L69.93 321.32L68.85 320.68L67.75 320.08L66.62 319.53L65.46 319.02L64.28 318.57L63.07 318.16L61.84 317.8L60.59 317.5L59.32 317.24L58.04 317.04L56.73 316.9L55.41 316.81L54.08 316.79L52.74 316.81L51.42 316.9Z" id="cXahn5E"></path><path d="M237.41 397.78L237.41 293.62L264.52 293.62L264.52 397.78L237.41 397.78ZM237.41 285.1L237.41 262.25L264.52 262.25L264.52 285.1L237.41 285.1Z" id="dmSbXRpnt"></path><path d="M399.86 261.18L274.91 55.03L361.14 2.76L517.78 261.18L399.86 261.18Z" id="d7LjjElzU"></path><path d="M356.16 397.13L356.16 389.07L355.18 389.76L353.47 390.86L351.73 391.9L349.94 392.87L348.11 393.78L346.24 394.61L344.34 395.37L342.39 396.06L340.42 396.68L338.41 397.22L336.37 397.68L334.3 398.06L332.21 398.36L330.09 398.57L327.94 398.7L325.78 398.75L323.61 398.7L321.47 398.57L319.34 398.36L317.25 398.06L315.18 397.68L313.14 397.22L311.13 396.68L309.16 396.06L307.22 395.37L305.31 394.61L303.44 393.78L301.61 392.87L299.82 391.9L298.08 390.86L296.38 389.76L294.72 388.59L293.11 387.37L291.55 386.08L290.05 384.73L288.59 383.33L287.19 381.88L285.85 380.37L284.56 378.81L283.33 377.2L282.17 375.55L281.06 373.85L280.03 372.1L279.05 370.31L278.15 368.48L277.31 366.61L276.55 364.71L275.86 362.77L275.25 360.79L274.71 358.78L274.25 356.74L273.87 354.68L273.57 352.58L273.35 350.46L273.22 348.32L273.18 346.15L273.22 343.98L273.35 341.84L273.57 339.72L273.87 337.62L274.25 335.55L274.71 333.52L275.25 331.51L275.86 329.53L276.55 327.59L277.31 325.68L278.15 323.82L279.05 321.99L280.03 320.2L281.06 318.45L282.17 316.75L283.33 315.09L284.56 313.49L285.85 311.93L287.19 310.42L288.59 308.96L290.05 307.56L291.55 306.22L293.11 304.93L294.72 303.71L296.38 302.54L298.08 301.44L299.82 300.4L301.61 299.43L303.44 298.52L305.31 297.69L307.22 296.92L309.16 296.24L311.13 295.62L313.14 295.08L315.18 294.62L317.25 294.24L319.34 293.94L321.47 293.73L323.61 293.6L325.78 293.55L327.94 293.6L330.09 293.73L332.21 293.94L334.3 294.24L336.37 294.62L338.41 295.08L340.42 295.62L342.39 296.24L344.34 296.92L346.24 297.69L348.11 298.52L349.94 299.43L351.73 300.4L353.47 301.44L355.18 302.54L356.16 303.23L356.16 261.61L380.68 261.61L380.68 397.13L356.16 397.13ZM323.76 316.9L322.46 317.04L321.17 317.24L319.9 317.5L318.65 317.8L317.43 318.16L316.22 318.57L315.04 319.02L313.88 319.53L312.75 320.08L311.64 320.68L310.57 321.32L309.52 322L308.5 322.73L307.52 323.49L306.57 324.3L305.65 325.14L304.77 326.02L303.93 326.94L303.12 327.89L302.35 328.88L301.63 329.89L300.94 330.94L300.3 332.02L299.71 333.12L299.15 334.25L298.65 335.41L298.19 336.59L297.79 337.8L297.43 339.03L297.12 340.28L296.87 341.55L296.67 342.83L296.53 344.14L296.44 345.46L296.41 346.79L296.44 348.13L296.53 349.45L296.67 350.76L296.87 352.04L297.12 353.31L297.43 354.56L297.79 355.79L298.19 357L298.65 358.18L299.15 359.34L299.71 360.47L300.3 361.57L300.94 362.65L301.63 363.7L302.35 364.71L303.12 365.7L303.93 366.65L304.77 367.57L305.65 368.45L306.57 369.29L307.52 370.1L308.5 370.86L309.52 371.59L310.57 372.27L311.64 372.91L312.75 373.51L313.88 374.06L315.04 374.57L316.22 375.02L317.43 375.43L318.65 375.79L319.9 376.09L321.17 376.35L322.46 376.54L323.76 376.69L325.09 376.78L326.42 376.8L327.76 376.78L329.08 376.69L330.38 376.54L331.67 376.35L332.94 376.09L334.19 375.79L335.42 375.43L336.62 375.02L337.81 374.57L338.96 374.06L340.1 373.51L341.2 372.91L342.28 372.27L343.32 371.59L344.34 370.86L345.33 370.1L346.28 369.29L347.19 368.45L348.07 367.57L348.92 366.65L349.72 365.7L350.49 364.71L351.22 363.7L351.9 362.65L352.54 361.57L353.14 360.47L353.69 359.34L354.19 358.18L354.65 357L355.06 355.79L355.41 354.56L355.72 353.31L355.97 352.04L356.16 350.84L356.16 342.75L355.97 341.55L355.72 340.28L355.41 339.03L355.06 337.8L354.65 336.59L354.19 335.41L353.69 334.25L353.14 333.12L352.54 332.02L351.9 330.94L351.22 329.89L350.49 328.88L349.72 327.89L348.92 326.94L348.07 326.02L347.19 325.14L346.28 324.3L345.33 323.49L344.34 322.73L343.32 322L342.28 321.32L341.2 320.68L340.1 320.08L338.96 319.53L337.81 319.02L336.62 318.57L335.42 318.16L334.19 317.8L332.94 317.5L331.67 317.24L330.38 317.04L329.08 316.9L327.76 316.81L326.42 316.79L325.09 316.81L323.76 316.9Z" id="e87maC8v8B"></path><path d="M557.12 290.27L558.87 290.41L560.59 290.6L562.29 290.84L563.96 291.13L565.62 291.48L567.24 291.87L568.84 292.31L570.4 292.8L571.94 293.33L573.44 293.91L574.91 294.53L576.35 295.19L577.75 295.89L579.11 296.64L580.43 297.42L581.71 298.24L582.95 299.1L584.15 299.99L585.3 300.92L586.4 301.88L587.46 302.88L588.47 303.9L589.43 304.96L590.34 306.04L591.19 307.16L591.99 308.3L592.73 309.47L593.42 310.66L594.05 311.88L594.61 313.11L595.12 314.38L595.56 315.66L595.94 316.96L596.25 318.28L596.5 319.61L596.68 320.97L596.78 322.33L596.82 323.72L596.8 324.37L570.15 324.37L570.15 321.02L570.05 321.02L570 320.33L569.77 319.37L569.4 318.44L568.89 317.54L568.24 316.68L567.47 315.87L566.58 315.1L565.58 314.38L564.47 313.71L563.27 313.11L561.98 312.57L560.6 312.1L559.15 311.7L557.63 311.38L556.06 311.14L554.43 310.98L552.75 310.92L551.07 310.95L549.44 311.07L547.86 311.28L546.33 311.57L544.88 311.93L543.49 312.38L542.19 312.89L540.97 313.47L539.85 314.11L538.84 314.81L537.93 315.56L537.14 316.36L536.48 317.21L535.95 318.09L535.55 319.02L535.31 319.97L535.22 320.95L535.29 321.94L535.51 322.9L535.89 323.83L536.4 324.72L537.05 325.58L537.82 326.4L538.71 327.17L539.71 327.89L540.82 328.55L542.02 329.16L543.31 329.7L544.69 330.17L546.14 330.57L547.65 330.89L549.23 331.13L550.86 331.29L552.54 331.35L553.51 331.33L553.51 331.48L555.81 331.61L556.92 331.65L558.79 331.79L560.64 331.98L562.47 332.23L564.27 332.52L566.04 332.86L567.79 333.25L569.5 333.69L571.19 334.18L572.84 334.71L574.45 335.29L576.03 335.91L577.58 336.57L579.08 337.28L580.54 338.02L581.96 338.8L583.34 339.63L584.67 340.48L585.96 341.38L587.19 342.31L588.38 343.27L589.52 344.26L590.6 345.29L591.63 346.34L592.61 347.43L593.53 348.54L594.38 349.69L595.18 350.85L595.92 352.04L596.59 353.26L597.2 354.5L597.75 355.76L598.22 357.04L598.63 358.34L598.97 359.66L599.23 361L599.42 362.35L599.53 363.72L599.57 365.1L599.53 366.48L599.42 367.85L599.23 369.21L598.97 370.54L598.63 371.86L598.22 373.16L597.75 374.44L597.2 375.7L596.59 376.94L595.92 378.16L595.18 379.35L594.38 380.52L593.53 381.66L592.61 382.77L591.63 383.86L590.6 384.92L589.52 385.94L588.38 386.94L587.19 387.9L585.96 388.83L584.67 389.72L583.34 390.58L581.96 391.4L580.54 392.18L579.08 392.93L577.58 393.63L576.03 394.29L574.45 394.91L572.84 395.49L571.19 396.02L569.5 396.51L567.79 396.95L566.04 397.34L564.27 397.69L562.47 397.98L560.64 398.22L558.79 398.41L556.92 398.55L555.02 398.63L553.11 398.66L551.19 398.63L549.3 398.55L547.42 398.41L545.57 398.22L543.75 397.98L541.95 397.69L540.17 397.34L538.43 396.95L536.71 396.51L535.03 396.02L533.38 395.49L531.76 394.91L530.18 394.29L528.64 393.63L527.13 392.93L525.67 392.18L524.25 391.4L522.87 390.58L521.54 389.72L520.26 388.83L519.02 387.9L517.83 386.94L516.69 385.94L515.61 384.92L514.58 383.86L513.61 382.77L512.69 381.66L511.83 380.52L511.03 379.35L510.29 378.16L509.62 376.94L509.01 375.7L508.47 374.44L507.99 373.16L507.58 371.86L507.25 370.54L506.98 369.21L506.79 367.85L506.68 366.48L506.64 365.1L506.67 364.18L533.48 364.18L533.48 368.31L533.59 368.31L533.64 369L533.85 369.94L534.2 370.84L534.68 371.72L535.28 372.57L536 373.38L536.83 374.15L537.76 374.88L538.8 375.56L539.92 376.19L541.14 376.77L542.44 377.3L543.81 377.77L545.25 378.17L546.76 378.51L548.32 378.77L549.94 378.97L551.6 379.09L553.3 379.13L555.01 379.09L556.67 378.97L558.28 378.77L559.85 378.51L561.35 378.17L562.8 377.77L564.17 377.3L565.47 376.77L566.68 376.19L567.81 375.56L568.84 374.88L569.78 374.15L570.61 373.38L571.33 372.57L571.93 371.72L572.41 370.84L572.76 369.94L572.97 369L573.04 368.05L572.97 367.09L572.76 366.16L572.41 365.25L571.93 364.37L571.33 363.53L570.61 362.72L569.78 361.95L568.84 361.22L567.81 360.54L566.68 359.9L565.47 359.32L564.17 358.8L562.8 358.33L561.35 357.93L559.85 357.59L558.28 357.32L557.02 357.17L555.36 357.25L553.58 357.28L551.8 357.25L550.03 357.16L548.29 357.03L546.57 356.84L544.87 356.59L543.19 356.3L541.54 355.96L539.92 355.56L538.32 355.12L536.75 354.64L535.22 354.1L533.71 353.53L532.24 352.91L530.81 352.25L529.41 351.54L528.05 350.8L526.73 350.01L525.45 349.19L524.21 348.34L523.01 347.44L521.86 346.51L520.75 345.55L519.69 344.56L518.69 343.53L518.21 343.01L518.15 343.01L518.19 342.98L517.73 342.47L516.82 341.39L515.97 340.28L515.17 339.13L514.42 337.97L513.74 336.77L513.11 335.56L512.54 334.32L512.04 333.06L511.6 331.78L511.22 330.48L510.91 329.16L510.66 327.82L510.48 326.47L510.37 325.1L510.34 323.72L510.37 322.33L510.48 320.97L510.66 319.61L510.91 318.28L511.22 316.96L511.6 315.66L512.04 314.38L512.54 313.11L513.11 311.88L513.74 310.66L514.42 309.47L515.17 308.3L515.97 307.16L516.82 306.04L517.73 304.96L518.69 303.9L519.69 302.88L520.75 301.88L521.86 300.92L523.01 299.99L524.21 299.1L525.45 298.24L526.73 297.42L528.05 296.64L529.41 295.89L530.81 295.19L532.24 294.53L533.71 293.91L535.22 293.33L536.75 292.8L538.32 292.31L539.92 291.87L541.54 291.48L543.19 291.13L544.87 290.84L546.57 290.6L548.29 290.41L550.03 290.27L551.8 290.19L553.58 290.16L555.36 290.19L557.12 290.27Z" id="a1F2wncH1V"></path></defs><g><g><g><use xlink:href="#e1D0jwbZNd" opacity="1" fill="#000000" fill-opacity="1"></use></g><g><use xlink:href="#a50NiWqy9H" opacity="1" fill="#000000" fill-opacity="1"></use></g><g><use xlink:href="#emzguNSo1" opacity="1" fill="#000000" fill-opacity="1"></use></g><g><use xlink:href="#anHXmJBFP" opacity="1" fill="#000000" fill-opacity="1"></use></g><g><use xlink:href="#cXahn5E" opacity="1" fill="#000000" fill-opacity="1"></use></g><g><use xlink:href="#dmSbXRpnt" opacity="1" fill="#000000" fill-opacity="1"></use></g><g><use xlink:href="#d7LjjElzU" opacity="1" fill="#000000" fill-opacity="1"></use></g><g><use xlink:href="#e87maC8v8B" opacity="1" fill="#000000" fill-opacity="1"></use></g><g><use xlink:href="#a1F2wncH1V" opacity="1" fill="#000000" fill-opacity="1"></use><g><use xlink:href="#a1F2wncH1V" opacity="1" fill-opacity="0" stroke="#0060ff" stroke-width="0.2" stroke-opacity="1"></use></g></g></g></g></svg>