<?xml version="1.0" encoding="UTF-8" standalone="no"?>
<!DOCTYPE svg PUBLIC "-//W3C//DTD SVG 1.1//EN" "http://www.w3.org/Graphics/SVG/1.1/DTD/svg11.dtd">
<svg version="1.1" xmlns="http://www.w3.org/2000/svg" xmlns:xlink="http://www.w3.org/1999/xlink" preserveAspectRatio="xMidYMid meet" viewBox="0 0 450 100" width="450" height="100"><defs><path d="M60.98 0.89L62.19 1.42L63.38 1.98L64.54 2.59L65.67 3.23L66.77 3.91L67.84 4.63L68.87 5.38L69.88 6.16L70.84 6.97L71.77 7.82L72.67 8.7L73.52 9.61L74.34 10.55L75.11 11.51L75.84 12.5L76.53 13.52L77.18 14.56L77.78 15.63L78.33 16.72L78.84 17.83L79.3 18.96L79.71 20.11L80.06 21.28L80.37 22.47L80.62 23.67L80.82 24.89L80.97 26.13L81.05 27.38L81.08 28.64L81.05 29.9L80.97 31.15L80.82 32.39L80.62 33.61L80.37 34.81L80.06 36L79.71 37.17L79.3 38.32L78.84 39.45L78.33 40.56L77.78 41.65L77.18 42.72L76.53 43.76L75.84 44.78L75.11 45.77L74.34 46.73L73.52 47.67L72.67 48.58L71.77 49.46L70.84 50.31L69.88 51.12L68.87 51.91L67.84 52.65L66.77 53.37L65.67 54.05L64.54 54.69L64.43 54.75L65.21 55.07L66.32 55.6L67.39 56.2L68.42 56.86L69.42 57.57L70.38 58.34L71.3 59.16L72.17 60.03L72.99 60.96L73.77 61.93L74.5 62.94L75.17 64L75.79 65.09L76.36 66.23L76.86 67.4L77.31 68.6L77.69 69.84L78.01 71.1L78.26 72.39L78.44 73.71L78.55 75.05L78.58 76.41L78.57 76.95L78.59 76.95L78.59 100.12L57.28 100.12L57.28 77.38L57.27 77.38L57.28 77.29L57.23 76.09L57.08 74.9L56.84 73.75L56.51 72.61L56.09 71.51L55.59 70.44L55 69.41L54.34 68.41L53.6 67.46L52.79 66.54L51.91 65.67L50.97 64.85L49.97 64.08L48.9 63.36L47.79 62.7L47.04 62.32L27.1 62.32L27.1 44.92L27.14 44.92L27.14 44.9L45.63 44.9L46 44.92L46.41 44.92L46.78 44.9L47.21 44.9L47.21 44.88L47.53 44.86L48.81 44.67L50.04 44.35L51.23 43.92L52.36 43.38L53.42 42.74L54.41 42L55.33 41.17L56.16 40.26L56.9 39.27L57.55 38.21L58.09 37.09L58.53 35.91L58.85 34.68L59.04 33.41L59.11 32.1L59.04 30.79L58.85 29.51L58.53 28.28L58.09 27.1L57.55 25.98L56.9 24.93L56.16 23.94L55.33 23.03L54.41 22.2L53.42 21.46L52.36 20.82L51.23 20.27L50.04 19.84L48.81 19.53L47.87 19.38L21.62 19.38L21.62 80.17L0.52 80.17L0.52 0.13L58.94 0.13L59.74 0.4L60.98 0.89Z" id="d1nZdskuge"></path><path d="M257.82 19.38L257.82 36.27L257.82 36.27L257.82 60.74L257.88 60.76L258.32 60.91L275.01 60.91L275.44 60.76L276.73 60.24L277.95 59.65L279.1 59L280.18 58.29L281.17 57.52L282.09 56.7L282.91 55.82L283.64 54.91L284.27 53.95L284.8 52.95L285.22 51.92L285.53 50.85L285.71 49.76L285.78 48.64L285.71 47.52L285.53 46.42L285.22 45.36L284.8 44.32L284.27 43.33L283.64 42.37L282.91 41.45L282.09 40.58L281.17 39.76L280.18 38.99L279.1 38.28L277.95 37.62L277.78 37.54L262.84 37.54L262.84 35.48L262.81 35.48L262.81 19.27L284.28 19.27L285.37 19.65L286.66 20.16L287.92 20.71L289.16 21.3L290.36 21.93L291.54 22.61L292.68 23.32L293.8 24.07L294.87 24.85L295.92 25.67L296.92 26.52L297.89 27.41L298.82 28.33L299.71 29.28L300.56 30.26L301.36 31.27L302.12 32.31L302.84 33.38L303.51 34.47L304.14 35.58L304.71 36.72L305.24 37.88L305.72 39.07L306.14 40.27L306.52 41.5L306.83 42.74L307.1 44L307.3 45.28L307.45 46.57L307.54 47.88L307.57 49.2L307.54 50.52L307.45 51.83L307.3 53.13L307.1 54.4L306.83 55.66L306.52 56.91L306.14 58.13L305.72 59.34L305.24 60.52L304.71 61.68L304.14 62.82L303.51 63.94L302.84 65.03L302.12 66.1L301.36 67.13L300.56 68.14L299.71 69.12L298.82 70.07L297.89 70.99L296.92 71.88L295.92 72.74L294.87 73.56L293.8 74.34L292.68 75.09L291.54 75.8L290.36 76.47L289.16 77.11L287.92 77.7L286.66 78.25L285.37 78.76L284.05 79.22L282.71 79.65L281.34 80.02L280.73 80.17L280.73 80.12L277.26 80.12L277.26 80.17L257.82 80.17L257.82 80.24L236.72 80.24L236.72 0.19L257.82 0.19L257.82 19.38L257.82 19.38Z" id="a3QYEPHNYd"></path><path d="M187.44 80.19L186.17 79.82L184.92 79.41L183.7 78.95L182.49 78.45L181.31 77.9L180.16 77.32L179.04 76.7L177.94 76.03L176.88 75.33L175.84 74.6L174.84 73.82L173.87 73.02L172.93 72.17L172.03 71.3L171.16 70.39L170.34 69.46L169.55 68.49L168.8 67.5L168.09 66.47L167.42 65.43L166.79 64.35L166.21 63.25L165.67 62.13L165.18 60.98L164.74 59.82L164.34 58.63L163.99 57.42L163.7 56.2L163.45 54.96L163.26 53.7L163.12 52.42L163.04 51.14L163.01 49.83L163.04 48.53L163.12 47.24L163.26 45.97L163.45 44.71L163.7 43.47L163.99 42.24L164.34 41.04L164.74 39.85L165.18 38.68L165.67 37.54L166.21 36.42L166.79 35.32L167.42 34.24L168.09 33.19L168.8 32.17L169.55 31.18L170.34 30.21L171.16 29.28L172.03 28.37L172.93 27.5L173.87 26.65L174.84 25.85L175.84 25.07L176.88 24.34L177.94 23.64L179.04 22.97L180.16 22.35L181.31 21.76L182.49 21.22L183.7 20.72L184.92 20.26L186.17 19.85L187.44 19.48L187.75 19.4L187.75 19.27L229.86 19.27L229.86 37.23L229.74 37.23L217.06 57.66L195.62 57.66L208.3 37.23L193.25 37.23L192.55 37.49L191.31 38.05L190.14 38.69L189.05 39.4L188.03 40.16L187.1 40.99L186.25 41.87L185.51 42.81L184.86 43.79L184.32 44.82L183.88 45.88L183.57 46.99L183.38 48.12L183.31 49.28L183.38 50.44L183.57 51.57L183.88 52.67L184.32 53.73L184.86 54.76L185.51 55.74L186.25 56.68L187.1 57.56L188.03 58.39L189.05 59.16L190.14 59.86L191.31 60.5L192.47 61.03L229.86 61.03L229.86 80.28L188.01 80.28L188.01 80.33L187.44 80.19Z" id="bWk2SP2tn"></path><path d="M111.9 80.07L110.63 79.7L109.38 79.29L108.15 78.83L106.95 78.33L105.77 77.79L104.62 77.2L103.5 76.58L102.4 75.92L101.34 75.22L100.3 74.48L99.3 73.71L98.33 72.9L97.39 72.06L96.49 71.18L95.62 70.28L94.8 69.34L94.01 68.37L93.26 67.38L92.55 66.36L91.88 65.31L91.25 64.23L90.67 63.13L90.13 62.01L89.64 60.87L89.2 59.7L88.8 58.51L88.45 57.31L88.16 56.08L87.91 54.84L87.72 53.58L87.58 52.31L87.5 51.02L87.47 49.72L87.5 48.41L87.58 47.13L87.72 45.85L87.91 44.59L88.16 43.35L88.45 42.13L88.8 40.92L89.2 39.73L89.64 38.57L90.13 37.42L90.67 36.3L91.25 35.2L91.88 34.13L92.55 33.08L93.26 32.05L94.01 31.06L94.8 30.09L95.62 29.16L96.49 28.25L97.39 27.38L98.33 26.54L99.3 25.73L100.3 24.96L101.34 24.22L102.4 23.52L103.5 22.85L104.62 22.23L105.77 21.65L106.95 21.1L108.15 20.6L109.38 20.14L110.63 19.73L111.9 19.36L112.21 19.28L112.21 19.15L154.32 19.15L154.32 37.11L154.2 37.11L141.52 57.55L120.08 57.55L132.76 37.11L117.71 37.11L117.01 37.37L115.77 37.94L114.6 38.57L113.51 39.28L112.49 40.05L111.56 40.87L110.71 41.76L109.97 42.69L109.32 43.67L108.78 44.7L108.34 45.77L108.03 46.87L107.84 48L107.77 49.16L107.84 50.32L108.03 51.45L108.34 52.55L108.78 53.62L109.32 54.64L109.97 55.62L110.71 56.56L111.56 57.44L112.49 58.27L113.51 59.04L114.6 59.74L115.77 60.38L116.93 60.91L154.32 60.91L154.32 80.17L112.47 80.17L112.47 80.22L111.9 80.07Z" id="e263dIXjbA"></path><path d="M350.13 18.83L351.51 18.96L352.86 19.13L354.2 19.35L355.52 19.62L356.82 19.94L358.09 20.3L359.35 20.7L360.58 21.14L361.79 21.63L362.98 22.16L364.13 22.73L365.26 23.33L366.36 23.98L367.43 24.66L368.47 25.38L369.48 26.13L370.46 26.91L371.4 27.73L372.31 28.58L373.18 29.46L374.01 30.37L374.8 31.31L375.56 32.28L376.27 33.27L376.94 34.29L377.57 35.34L378.16 36.4L378.69 37.49L379.19 38.61L379.63 39.74L380.03 40.9L380.38 42.07L380.68 43.26L380.92 44.47L381.12 45.69L381.26 46.93L381.34 48.18L381.37 49.45L381.34 50.71L381.26 51.97L381.12 53.2L380.92 54.43L380.68 55.63L380.38 56.83L380.03 58L379.63 59.15L379.19 60.29L378.69 61.4L378.16 62.49L377.57 63.56L376.94 64.6L376.27 65.62L375.56 66.62L374.8 67.58L374.01 68.52L373.18 69.43L372.31 70.31L371.4 71.16L370.46 71.98L369.48 72.77L368.47 73.52L367.43 74.24L366.36 74.92L365.26 75.56L364.13 76.17L362.98 76.74L361.79 77.26L360.58 77.75L359.35 78.2L358.09 78.6L356.82 78.96L355.52 79.27L354.2 79.54L352.86 79.76L351.51 79.94L350.13 80.06L348.75 80.14L347.35 80.17L345.94 80.14L344.56 80.06L343.18 79.94L341.83 79.76L340.49 79.54L339.17 79.27L337.87 78.96L336.6 78.6L335.34 78.2L334.11 77.75L332.9 77.26L331.71 76.74L330.56 76.17L329.43 75.56L328.33 74.92L327.26 74.24L326.22 73.52L325.21 72.77L324.23 71.98L323.29 71.16L322.38 70.31L321.51 69.43L320.68 68.52L319.89 67.58L319.13 66.62L318.42 65.62L317.75 64.6L317.12 63.56L316.54 62.49L316 61.4L315.5 60.29L315.06 59.15L314.66 58L314.31 56.83L314.01 55.63L313.77 54.43L313.57 53.2L313.43 51.97L313.35 50.71L313.32 49.45L313.35 48.18L313.43 46.93L313.57 45.69L313.77 44.47L314.01 43.26L314.31 42.07L314.66 40.9L315.06 39.74L315.5 38.61L316 37.49L316.54 36.4L317.12 35.34L317.75 34.29L318.42 33.27L319.13 32.28L319.89 31.31L320.68 30.37L321.51 29.46L322.38 28.58L323.29 27.73L324.23 26.91L325.21 26.13L326.22 25.38L327.26 24.66L328.33 23.98L329.43 23.33L330.56 22.73L331.71 22.16L332.9 21.63L334.11 21.14L335.34 20.7L336.6 20.3L337.87 19.94L339.17 19.62L340.49 19.35L341.83 19.13L343.18 18.96L344.56 18.83L345.94 18.75L347.35 18.73L348.75 18.75L350.13 18.83ZM345.02 35.16L343.66 35.44L342.35 35.82L341.09 36.3L339.89 36.88L338.75 37.55L337.68 38.29L336.69 39.12L335.78 40.02L334.95 40.99L334.22 42.02L333.58 43.1L333.05 44.24L332.63 45.43L332.32 46.67L332.13 47.93L332.06 49.24L332.13 50.54L332.32 51.81L332.63 53.04L333.05 54.23L333.58 55.37L334.22 56.46L334.95 57.49L335.78 58.45L336.69 59.35L337.68 60.18L338.75 60.93L339.89 61.59L341.09 62.17L342.35 62.65L343.66 63.04L345.02 63.32L346.42 63.49L347.86 63.55L349.3 63.49L350.7 63.32L352.06 63.04L353.37 62.65L354.63 62.17L355.83 61.59L356.97 60.93L358.03 60.18L359.03 59.35L359.94 58.45L360.76 57.49L361.5 56.46L362.13 55.37L362.67 54.23L363.09 53.04L363.4 51.81L363.59 50.54L363.66 49.24L363.59 47.93L363.4 46.67L363.09 45.43L362.67 44.24L362.13 43.1L361.5 42.02L360.76 40.99L359.94 40.02L359.03 39.12L358.03 38.29L356.97 37.55L355.83 36.88L354.63 36.3L353.37 35.82L352.06 35.44L350.7 35.16L349.3 34.98L347.86 34.93L346.42 34.98L345.02 35.16Z" id="b2MvDsX6p"></path><path d="M420.3 34.93L420.77 34.68L421.87 34.01L422.9 33.28L423.88 32.51L424.79 31.68L425.62 30.8L426.39 29.88L427.08 28.92L427.68 27.92L428.21 26.89L428.64 25.82L428.98 24.76L428.98 18.89L450.52 18.89L450.52 26.96L450.51 26.96L450.51 27.37L450.31 28.3L449.96 29.54L449.54 30.75L449.05 31.92L448.5 33.06L447.88 34.15L447.21 35.19L446.47 36.19L445.68 37.14L444.84 38.03L443.95 38.87L443.01 39.65L442.03 40.37L441 41.02L439.93 41.61L438.83 42.13L437.69 42.58L436.52 42.95L435.38 43.23L435.53 43.24L436.63 43.47L437.71 43.78L438.76 44.18L439.79 44.66L440.79 45.21L441.75 45.85L442.68 46.55L443.58 47.32L444.44 48.16L445.26 49.06L446.03 50.02L446.76 51.05L447.45 52.12L448.09 53.25L448.67 54.43L449.21 55.66L449.69 56.93L450.11 58.24L450.39 59.29L450.46 59.29L450.46 80.17L428.98 80.17L428.98 65.81L428.91 65.81L428.9 65.21L428.76 63.94L428.52 62.7L428.19 61.5L427.77 60.33L427.26 59.2L426.66 58.12L425.99 57.08L425.24 56.1L424.42 55.17L423.53 54.3L422.58 53.5L421.57 52.76L420.5 52.09L419.7 51.66L408.37 51.66L408.37 80.17L387.27 80.17L387.27 0.12L408.37 0.12L408.37 34.93L420.3 34.93Z" id="b4hRvRcWqe"></path></defs><g><g><g><use xlink:href="#d1nZdskuge" opacity="1" fill="#000000" fill-opacity="1"></use></g><g><use xlink:href="#a3QYEPHNYd" opacity="1" fill="#000000" fill-opacity="1"></use></g><g><use xlink:href="#bWk2SP2tn" opacity="1" fill="#000000" fill-opacity="1"></use></g><g><use xlink:href="#e263dIXjbA" opacity="1" fill="#000000" fill-opacity="1"></use></g><g><use xlink:href="#b2MvDsX6p" opacity="1" fill="#000000" fill-opacity="1"></use></g><g><use xlink:href="#b4hRvRcWqe" opacity="1" fill="#000000" fill-opacity="1"></use></g></g></g></svg>