<?xml version="1.0" encoding="UTF-8" standalone="no"?>
<!DOCTYPE svg PUBLIC "-//W3C//DTD SVG 1.1//EN" "http://www.w3.org/Graphics/SVG/1.1/DTD/svg11.dtd">
<svg version="1.1" xmlns="http://www.w3.org/2000/svg" xmlns:xlink="http://www.w3.org/1999/xlink" preserveAspectRatio="xMidYMid meet" viewBox="0 0 640 640" width="640" height="640"><defs><path d="M238.54 1.79L247.36 2.69L256.07 3.93L264.68 5.51L273.16 7.43L281.51 9.67L289.73 12.23L297.81 15.1L305.74 18.27L313.51 21.74L321.12 25.5L328.56 29.55L335.83 33.87L342.9 38.46L349.79 43.31L356.48 48.41L362.97 53.76L369.24 59.36L375.29 65.18L381.12 71.24L386.71 77.51L392.07 83.99L397.17 90.68L402.02 97.57L406.61 104.65L410.93 111.92L414.97 119.36L418.73 126.97L422.21 134.74L425.38 142.67L428.25 150.75L430.81 158.97L433.05 167.32L434.96 175.8L436.55 184.4L437.79 193.12L438.69 201.94L439.23 210.86L439.41 219.88L439.23 228.89L438.69 237.81L437.79 246.63L436.55 255.35L434.96 263.95L433.05 272.43L430.81 280.79L428.25 289.01L425.38 297.08L422.21 305.01L418.73 312.79L414.97 320.4L410.93 327.84L406.61 335.1L402.02 342.18L397.17 349.07L392.07 355.76L386.71 362.24L381.12 368.52L375.29 374.57L369.24 380.4L362.97 385.99L356.48 391.34L349.79 396.45L342.9 401.3L335.83 405.88L328.56 410.2L321.12 414.25L313.51 418.01L305.74 421.48L297.81 424.65L289.73 427.52L281.51 430.08L273.16 432.32L264.68 434.24L256.07 435.82L247.36 437.06L238.54 437.96L229.61 438.5L220.6 438.69L211.59 438.5L202.67 437.96L193.84 437.06L185.13 435.82L176.53 434.24L168.04 432.32L159.69 430.08L151.47 427.52L143.39 424.65L135.46 421.48L127.69 418.01L120.08 414.25L112.64 410.2L105.38 405.88L98.3 401.3L91.41 396.45L84.72 391.34L78.23 385.99L71.96 380.4L65.91 374.57L60.08 368.52L54.49 362.24L49.14 355.76L44.03 349.07L39.18 342.18L34.59 335.1L30.27 327.84L26.23 320.4L22.47 312.79L19 305.01L15.82 297.08L12.95 289.01L10.39 280.79L8.15 272.43L6.24 263.95L4.66 255.35L3.41 246.63L2.52 237.81L1.97 228.89L1.79 219.88L1.97 210.86L2.52 201.94L3.41 193.12L4.66 184.4L6.24 175.8L8.15 167.32L10.39 158.97L12.95 150.75L15.82 142.67L19 134.74L22.47 126.97L26.23 119.36L30.27 111.92L34.59 104.65L39.18 97.57L44.03 90.68L49.14 83.99L54.49 77.51L60.08 71.24L65.91 65.18L71.96 59.36L78.23 53.76L84.72 48.41L91.41 43.31L98.3 38.46L105.38 33.87L112.64 29.55L120.08 25.5L127.69 21.74L135.46 18.27L143.39 15.1L151.47 12.23L159.69 9.67L168.04 7.43L176.53 5.51L185.13 3.93L193.84 2.69L202.67 1.79L211.59 1.25L220.6 1.07L229.61 1.25L238.54 1.79ZM206.31 65.3L199.88 65.94L193.53 66.83L187.27 67.97L181.09 69.34L175.01 70.94L169.02 72.77L163.14 74.83L157.37 77.1L151.7 79.59L146.16 82.28L140.74 85.18L135.45 88.27L130.3 91.56L125.28 95.03L120.41 98.69L115.69 102.52L111.12 106.53L106.71 110.7L102.47 115.04L98.39 119.53L94.49 124.17L90.78 128.97L87.24 133.9L83.9 138.97L80.76 144.17L77.81 149.5L75.07 154.95L72.54 160.52L70.23 166.2L68.14 171.98L66.28 177.87L64.65 183.85L63.25 189.93L62.1 196.09L61.19 202.33L60.54 208.65L60.15 215.04L60.01 221.5L60.15 227.95L60.54 234.34L61.19 240.66L62.1 246.9L63.25 253.06L64.65 259.14L66.28 265.12L68.14 271.01L70.23 276.79L72.54 282.47L75.07 288.04L77.81 293.49L80.76 298.82L83.9 304.02L87.24 309.09L90.78 314.02L94.49 318.82L98.39 323.46L102.47 327.95L106.71 332.29L111.12 336.46L115.69 340.47L120.41 344.3L125.28 347.96L130.3 351.43L135.45 354.72L140.74 357.81L146.16 360.71L151.7 363.4L157.37 365.89L163.14 368.16L169.02 370.22L175.01 372.05L181.09 373.65L187.27 375.02L193.53 376.16L199.88 377.05L206.31 377.69L212.8 378.08L219.37 378.21L225.93 378.08L232.43 377.69L238.86 377.05L245.2 376.16L251.47 375.02L257.64 373.65L263.73 372.05L269.71 370.22L275.6 368.16L281.37 365.89L287.03 363.4L292.58 360.71L297.99 357.81L303.28 354.72L308.44 351.43L313.46 347.96L318.33 344.3L323.05 340.47L327.62 336.46L332.03 332.29L336.27 327.95L340.35 323.46L344.24 318.82L347.96 314.02L351.49 309.09L354.84 304.02L357.98 298.82L360.93 293.49L363.67 288.04L366.19 282.47L368.5 276.79L370.59 271.01L372.46 265.12L374.09 259.14L375.48 253.06L376.64 246.9L377.54 240.66L378.2 234.34L378.59 227.95L378.72 221.5L378.59 215.04L378.2 208.65L377.54 202.33L376.64 196.09L375.48 189.93L374.09 183.85L372.46 177.87L370.59 171.98L368.5 166.2L366.19 160.52L363.67 154.95L360.93 149.5L357.98 144.17L354.84 138.97L351.49 133.9L347.96 128.97L344.24 124.17L340.35 119.53L336.27 115.04L332.03 110.7L327.62 106.53L323.05 102.52L318.33 98.69L313.46 95.03L308.44 91.56L303.28 88.27L297.99 85.18L292.58 82.28L287.03 79.59L281.37 77.1L275.6 74.83L269.71 72.77L263.73 70.94L257.64 69.34L251.47 67.97L245.2 66.83L238.86 65.94L232.43 65.3L225.93 64.91L219.37 64.78L212.8 64.91L206.31 65.3Z" id="b25kzAShxB"></path><path d="M343.36 396.38L391.73 348.01L635.66 591.95L587.3 640.31L343.36 396.38Z" id="bu1JdyEG5"></path></defs><g><g><g><use xlink:href="#b25kzAShxB" opacity="1" fill="#000000" fill-opacity="1"></use><g><use xlink:href="#b25kzAShxB" opacity="1" fill-opacity="0" stroke="#000000" stroke-width="14" stroke-opacity="0"></use></g></g><g><use xlink:href="#bu1JdyEG5" opacity="1" fill="#000000" fill-opacity="1"></use></g></g></g></svg>