<?xml version="1.0" encoding="UTF-8" standalone="no"?>
<!DOCTYPE svg PUBLIC "-//W3C//DTD SVG 1.1//EN" "http://www.w3.org/Graphics/SVG/1.1/DTD/svg11.dtd">
<svg version="1.1" xmlns="http://www.w3.org/2000/svg" xmlns:xlink="http://www.w3.org/1999/xlink" preserveAspectRatio="xMidYMid meet" viewBox="0 0 500 450" width="500" height="450"><defs><path d="M407.64 321.85L407.64 373.14L92.36 373.14L92.36 321.85L407.64 321.85Z" id="bcqCCzbSf"></path><path d="M500 413.73L463.68 450L371.45 357.91L407.77 321.64L500 413.73Z" id="a2KtQ707c4"></path><path d="M128.55 357.68L92.23 321.41L0 413.51L36.32 449.77L128.55 357.68Z" id="c3NhEScXeN"></path><path d="M262.86 0.51L269.2 1.15L275.47 2.03L281.65 3.15L287.75 4.5L293.76 6.09L299.66 7.9L305.47 9.93L311.17 12.17L316.76 14.63L322.23 17.29L327.58 20.15L332.8 23.2L337.89 26.45L342.84 29.88L347.65 33.49L352.31 37.28L356.82 41.24L361.17 45.36L365.36 49.64L369.38 54.08L373.23 58.66L376.9 63.4L380.39 68.27L383.69 73.28L386.79 78.42L389.7 83.68L392.4 89.06L394.9 94.56L397.18 100.17L399.24 105.88L401.08 111.7L402.69 117.61L404.07 123.61L405.21 129.69L406.1 135.86L406.75 142.1L407.14 148.41L407.27 154.79L407.14 161.16L406.75 167.48L406.1 173.72L405.21 179.88L404.07 185.97L402.69 191.97L401.08 197.88L399.24 203.69L397.18 209.4L394.9 215.01L392.4 220.51L389.7 225.9L386.79 231.16L383.69 236.3L380.39 241.31L376.9 246.18L373.23 250.91L369.38 255.5L365.36 259.94L361.17 264.22L356.82 268.34L352.31 272.3L347.65 276.08L342.84 279.69L337.89 283.13L332.8 286.37L327.58 289.43L322.23 292.29L316.76 294.95L311.17 297.4L305.47 299.65L299.66 301.68L293.76 303.49L287.75 305.07L281.65 306.43L275.47 307.55L269.2 308.43L262.86 309.06L256.45 309.45L249.97 309.58L243.49 309.45L237.08 309.06L230.73 308.43L224.47 307.55L218.28 306.43L212.19 305.07L206.18 303.49L200.27 301.68L194.47 299.65L188.77 297.4L183.18 294.95L177.71 292.29L172.36 289.43L167.14 286.37L162.05 283.13L157.1 279.69L152.29 276.08L147.62 272.3L143.12 268.34L138.76 264.22L134.58 259.94L130.55 255.5L126.71 250.91L123.04 246.18L119.55 241.31L116.25 236.3L113.15 231.16L110.24 225.9L107.54 220.51L105.04 215.01L102.76 209.4L100.7 203.69L98.86 197.88L97.25 191.97L95.87 185.97L94.73 179.88L93.84 173.72L93.19 167.48L92.8 161.16L92.67 154.79L92.8 148.41L93.19 142.1L93.84 135.86L94.73 129.69L95.87 123.61L97.25 117.61L98.86 111.7L100.7 105.88L102.76 100.17L105.04 94.56L107.54 89.06L110.24 83.68L113.15 78.42L116.25 73.28L119.55 68.27L123.04 63.4L126.71 58.66L130.55 54.08L134.58 49.64L138.76 45.36L143.12 41.24L147.62 37.28L152.29 33.49L157.1 29.88L162.05 26.45L167.14 23.2L172.36 20.15L177.71 17.29L183.18 14.63L188.77 12.17L194.47 9.93L200.27 7.9L206.18 6.09L212.19 4.5L218.28 3.15L224.47 2.03L230.73 1.15L237.08 0.51L243.49 0.13L249.97 0L256.45 0.13L262.86 0.51ZM241.29 49.22L237.02 49.65L232.8 50.24L228.63 51L224.53 51.91L220.48 52.98L216.5 54.2L212.59 55.56L208.75 57.08L204.99 58.73L201.3 60.52L197.7 62.45L194.19 64.51L190.76 66.69L187.42 69L184.19 71.43L181.05 73.98L178.01 76.65L175.08 79.42L172.26 82.31L169.55 85.3L166.96 88.39L164.49 91.57L162.14 94.85L159.92 98.23L157.83 101.69L155.87 105.23L154.05 108.86L152.37 112.56L150.83 116.34L149.44 120.19L148.2 124.1L147.12 128.08L146.19 132.12L145.42 136.22L144.82 140.37L144.39 144.58L144.13 148.83L144.04 153.12L144.13 157.41L144.39 161.66L144.82 165.87L145.42 170.02L146.19 174.12L147.12 178.16L148.2 182.14L149.44 186.05L150.83 189.9L152.37 193.68L154.05 197.38L155.87 201.01L157.83 204.55L159.92 208.01L162.14 211.38L164.49 214.67L166.96 217.85L169.55 220.94L172.26 223.93L175.08 226.81L178.01 229.59L181.05 232.26L184.19 234.81L187.42 237.24L190.76 239.55L194.19 241.73L197.7 243.79L201.3 245.72L204.99 247.51L208.75 249.16L212.59 250.68L216.5 252.04L220.48 253.26L224.53 254.33L228.63 255.24L232.8 256L237.02 256.59L241.29 257.01L245.61 257.27L249.97 257.36L254.33 257.27L258.65 257.01L262.92 256.59L267.14 256L271.31 255.24L275.41 254.33L279.46 253.26L283.44 252.04L287.35 250.68L291.19 249.16L294.95 247.51L298.63 245.72L302.24 243.79L305.75 241.73L309.18 239.55L312.51 237.24L315.75 234.81L318.89 232.26L321.93 229.59L324.86 226.81L327.68 223.93L330.39 220.94L332.98 217.85L335.45 214.67L337.8 211.38L340.02 208.01L342.11 204.55L344.07 201.01L345.89 197.38L347.57 193.68L349.11 189.9L350.5 186.05L351.74 182.14L352.82 178.16L353.75 174.12L354.51 170.02L355.12 165.87L355.55 161.66L355.81 157.41L355.9 153.12L355.81 148.83L355.55 144.58L355.12 140.37L354.51 136.22L353.75 132.12L352.82 128.08L351.74 124.1L350.5 120.19L349.11 116.34L347.57 112.56L345.89 108.86L344.07 105.23L342.11 101.69L340.02 98.23L337.8 94.85L335.45 91.57L332.98 88.39L330.39 85.3L327.68 82.31L324.86 79.42L321.93 76.65L318.89 73.98L315.75 71.43L312.51 69L309.18 66.69L305.75 64.51L302.24 62.45L298.63 60.52L294.95 58.73L291.19 57.08L287.35 55.56L283.44 54.2L279.46 52.98L275.41 51.91L271.31 51L267.14 50.24L262.92 49.65L258.65 49.22L254.33 48.97L249.97 48.88L245.61 48.97L241.29 49.22Z" id="h1iK716vL"></path></defs><g><g><g><use xlink:href="#bcqCCzbSf" opacity="1" fill="#ffffff" fill-opacity="1"></use></g><g><use xlink:href="#a2KtQ707c4" opacity="1" fill="#ffffff" fill-opacity="1"></use></g><g><use xlink:href="#c3NhEScXeN" opacity="1" fill="#ffffff" fill-opacity="1"></use></g><g><use xlink:href="#h1iK716vL" opacity="1" fill="#ffffff" fill-opacity="1"></use></g></g></g></svg>